<?xml version="1.0" encoding="utf-8"?>
<!-- Generator: Adobe Illustrator 19.2.1, SVG Export Plug-In . SVG Version: 6.00 Build 0)  -->
<svg version="1.1" id="Capa_1" xmlns="http://www.w3.org/2000/svg" xmlns:xlink="http://www.w3.org/1999/xlink" x="0px" y="0px"
	 viewBox="0 0 17.3 17.3" style="enable-background:new 0 0 17.3 17.3;" xml:space="preserve">
<style type="text/css">
	.st0{fill:#E72D4B;}
</style>
<path class="st0" d="M16.8,6.8c0,0-7.2-6.3-7.2-6.3C9.3,0.3,9,0.2,8.6,0.2c-0.4,0-0.7,0.2-1,0.4c0,0-7.2,6.2-7.2,6.2
	C0,7.3-0.1,8,0.4,8.6c0.5,0.5,1.2,0.6,1.8,0.1l5.3-4.6v11.8c0,0.7,0.6,1.3,1.2,1.3s1.3-0.6,1.3-1.3V4.1l5.3,4.6
	c0.5,0.5,1.3,0.4,1.8-0.1C17.4,8,17.3,7.3,16.8,6.8z"/>
</svg>
