<?xml version="1.0" encoding="utf-8"?>
<!-- Generator: Adobe Illustrator 19.2.1, SVG Export Plug-In . SVG Version: 6.00 Build 0)  -->
<svg version="1.1" id="Capa_1" xmlns="http://www.w3.org/2000/svg" xmlns:xlink="http://www.w3.org/1999/xlink" x="0px" y="0px"
	 viewBox="0 0 389.8 436.4" style="enable-background:new 0 0 389.8 436.4;" xml:space="preserve">
<style type="text/css">
	.st0{fill:#333333;}
	.st1{clip-path:url(#XMLID_5_);}
	.st2{opacity:0.75;fill:#333333;}
	.st3{fill:#F51D46;}
	.st4{fill:#F51D46;stroke:#FFFFFF;stroke-miterlimit:10;}
	.st5{fill:none;stroke:#FFFFFF;stroke-miterlimit:10;}
	.st6{clip-path:url(#XMLID_11_);}
	.st7{fill:#FFFFFF;}
</style>
<g>
	<g>
		<path class="st2" d="M0.4,0.4l389.4,435.7V0.4H0.4z"/>
		<path class="st3" d="M0.8,0.1v436.3h388.6L0.8,0.1z"/>
	</g>
	<g>
		<path class="st7" d="M141.1,169.7l7.2-11.3l-0.1-0.1c-1.5,1.6-2.7,2.8-3.7,3.6l-5.8,5.2l-2.9-3.2l13.4-11.9l4.3,4.8l-7,11.2
			l0.1,0.1l11.9-5.7l4.3,4.8l-13.4,11.9l-3-3.3l5.9-5.2c0.3-0.3,0.6-0.6,1-0.9c0.4-0.3,1.3-1.1,2.8-2.3l-0.1-0.1l-12,5.9
			L141.1,169.7z"/>
		<path class="st7" d="M152,181.9l13.4-11.9l3.2,3.6l-13.4,11.9L152,181.9z"/>
		<path class="st7" d="M169.7,193.6c-0.8,0.7-1.8,1.2-2.8,1.3c-1,0.2-2.1,0-3.1-0.5c-1.1-0.5-2.1-1.2-3-2.3
			c-0.8-0.9-1.4-1.7-1.8-2.4c-0.4-0.7-0.8-1.5-1-2.5l3.2-2.9c0.3,1,0.6,2,1.1,2.9c0.5,0.9,1,1.7,1.5,2.3c0.5,0.5,0.9,0.8,1.3,0.9
			c0.4,0.1,0.8,0,1.1-0.3c0.2-0.2,0.3-0.4,0.3-0.6c0-0.2,0-0.5,0-0.9c-0.1-0.3-0.3-1.2-0.7-2.5c-0.4-1.2-0.6-2.2-0.6-3
			c0-0.8,0.1-1.5,0.4-2.1c0.3-0.6,0.8-1.3,1.4-1.8c1.2-1.1,2.6-1.5,4.1-1.2s2.9,1.2,4.3,2.8c1.2,1.4,2.2,3.1,2.8,5.1l-3.8,1.4
			c-0.5-1.8-1.2-3.1-2-4c-0.4-0.5-0.8-0.7-1.2-0.8c-0.4-0.1-0.7,0-0.9,0.2c-0.3,0.2-0.4,0.6-0.3,1c0,0.5,0.3,1.5,0.8,3.2
			c0.5,1.6,0.7,2.9,0.5,3.9C171.1,191.9,170.6,192.8,169.7,193.6z"/>
		<path class="st7" d="M183.4,195.8c-0.8-0.9-1.7-1.2-2.8-1.1c-1.1,0.1-2.3,0.8-3.6,1.9c-2.6,2.3-3,4.4-1.2,6.4
			c0.5,0.6,1.1,1.1,1.8,1.5c0.7,0.4,1.4,0.8,2.1,1.1l-3.1,2.7c-1.5-0.7-2.9-1.7-4.1-3.1c-1.8-2-2.6-4.1-2.4-6.2
			c0.2-2.1,1.4-4.2,3.6-6.1c1.4-1.2,2.8-2.1,4.3-2.5s3-0.4,4.4,0.1c1.4,0.5,2.7,1.4,3.9,2.7c1.3,1.4,2.2,3.1,2.7,5l-3.8,1.4
			c-0.2-0.7-0.5-1.4-0.7-2C184.3,197,183.9,196.4,183.4,195.8z"/>
		<path class="st7" d="M185.4,219.4l-7.1-7.9l13.4-11.9l7.1,7.9l-2.9,2.6l-3.9-4.3l-2.1,1.9l3.6,4l-2.9,2.6l-3.6-4l-2.5,2.2l3.9,4.3
			L185.4,219.4z"/>
		<path class="st7" d="M187.4,221.7l13.4-11.9l3.2,3.6l-10.5,9.3l4.6,5.1l-2.9,2.6L187.4,221.7z"/>
		<path class="st7" d="M204.5,240.8l1.9-2.9l-3.9-4.3l-3.1,1.6l-3.5-4l17.3-7.6l4.3,4.8l-9.5,16.4L204.5,240.8z M208.7,234.5
			l1.7-2.5c0.4-0.6,0.9-1.3,1.5-2.2c0.6-0.9,1-1.5,1.3-1.9c-0.4,0.2-1,0.6-1.8,1c-0.9,0.5-2.6,1.4-5.2,2.7L208.7,234.5z
			 M214.6,223.2l0.3-0.2c1.8,0,3,0.1,3.5,0.1c0.5,0,1,0,1.3-0.1l3.5,3.9l-0.2,0.2c-0.8-0.1-1.9-0.4-3.3-0.7c-1.4-0.3-2.4-0.6-3-0.8
			L214.6,223.2z"/>
		<path class="st7" d="M220.6,258.9l-4.2-4.7l5.1-13.3l-0.1-0.1c-1.4,1.4-2.5,2.5-3.2,3.2l-6,5.4l-2.9-3.2l13.4-11.9l4.2,4.7
			l-5,13.1l0,0.1c1.3-1.3,2.3-2.3,3.1-3l6-5.4l2.9,3.2L220.6,258.9z"/>
		<path class="st7" d="M230.2,269.8l-7.1-7.9l13.4-11.9l7.1,7.9l-2.9,2.6l-3.9-4.3l-2.1,1.9l3.6,4l-2.9,2.6l-3.6-4l-2.5,2.2l3.9,4.3
			L230.2,269.8z"/>
		<path class="st7" d="M239.6,280.3l1.9-2.9l-3.9-4.3l-3.1,1.6l-3.5-4l17.3-7.6l4.3,4.8l-9.5,16.4L239.6,280.3z M243.9,274l1.7-2.5
			c0.4-0.6,0.9-1.3,1.5-2.2c0.6-0.9,1-1.5,1.3-1.9c-0.4,0.2-1,0.6-1.8,1c-0.9,0.5-2.6,1.4-5.2,2.7L243.9,274z"/>
	</g>
</g>
</svg>
