<?xml version="1.0" encoding="utf-8"?>
<!-- Generator: Adobe Illustrator 19.2.1, SVG Export Plug-In . SVG Version: 6.00 Build 0)  -->
<svg version="1.1" id="Capa_1" xmlns="http://www.w3.org/2000/svg" xmlns:xlink="http://www.w3.org/1999/xlink" x="0px" y="0px"
	 viewBox="0 0 389.8 436.4" style="enable-background:new 0 0 389.8 436.4;" xml:space="preserve">
<style type="text/css">
	.st0{fill:#333333;}
	.st1{clip-path:url(#XMLID_5_);}
	.st2{opacity:0.75;fill:#333333;}
	.st3{fill:#F51D46;}
	.st4{fill:#F51D46;stroke:#FFFFFF;stroke-miterlimit:10;}
	.st5{fill:none;stroke:#FFFFFF;stroke-miterlimit:10;}
	.st6{clip-path:url(#XMLID_11_);}
	.st7{fill:#FFFFFF;}
</style>
<g>
	<g>
		<path class="st2" d="M389.3,436.4L0.8-0.1v436.5H389.3z"/>
		<path class="st3" d="M389.8,435.9V0.4H0.3L389.8,435.9z"/>
	</g>
	<g>
		<path class="st7" d="M139.3,167.5l-3.2-3.6l13.4-11.9l7,7.9l-2.9,2.6l-3.9-4.3l-2.6,2.3l3.6,4l-2.9,2.6l-3.6-4L139.3,167.5z"/>
		<path class="st7" d="M162.9,180.6c-2.3,2-4.5,3-6.6,2.9c-2.2-0.1-4.2-1.2-6.1-3.3c-1.9-2.1-2.7-4.2-2.5-6.4
			c0.2-2.2,1.4-4.3,3.6-6.3c2.2-2,4.4-2.9,6.6-2.9c2.2,0.1,4.2,1.2,6.1,3.3c1.9,2.1,2.7,4.3,2.6,6.4
			C166.4,176.5,165.2,178.6,162.9,180.6z M154.7,171.4c-2.6,2.3-3.1,4.4-1.5,6.2c0.8,0.9,1.7,1.3,2.8,1.2c1-0.1,2.2-0.8,3.5-2
			c1.3-1.2,2.1-2.3,2.4-3.3c0.2-1,0-2-0.8-2.9C159.5,168.8,157.3,169.1,154.7,171.4z"/>
		<path class="st7" d="M163.6,194.9l-3.2-3.6l10.4-9.3l-2.9-3.3l3-2.6l9,10.1l-3,2.6l-2.9-3.3L163.6,194.9z"/>
		<path class="st7" d="M186.1,206.6c-2.3,2-4.5,3-6.6,2.9c-2.2-0.1-4.2-1.2-6.1-3.3c-1.9-2.1-2.7-4.2-2.5-6.4
			c0.2-2.2,1.4-4.3,3.6-6.3c2.2-2,4.4-2.9,6.6-2.9c2.2,0.1,4.2,1.2,6.1,3.3c1.9,2.1,2.7,4.3,2.6,6.4
			C189.6,202.5,188.3,204.6,186.1,206.6z M177.9,197.4c-2.6,2.3-3.1,4.4-1.5,6.2c0.8,0.9,1.7,1.3,2.8,1.2s2.2-0.8,3.5-2
			c1.3-1.2,2.1-2.3,2.4-3.3c0.2-1,0-2-0.8-2.9C182.6,194.8,180.5,195,177.9,197.4z"/>
		<path class="st7" d="M194.1,213.3l5.1,5.8l-7.2,6.4c-1.9-1.1-3.7-2.6-5.4-4.4c-1.8-2.1-2.7-4.2-2.5-6.4c0.2-2.2,1.4-4.3,3.6-6.2
			c2.2-1.9,4.4-2.8,6.7-2.6s4.4,1.4,6.4,3.6c0.8,0.8,1.4,1.7,1.9,2.6c0.5,0.9,0.9,1.7,1.1,2.5l-3.9,1.4c-0.4-1.4-1.1-2.7-2.1-3.8
			c-0.9-1.1-2-1.6-3.2-1.5c-1.2,0-2.4,0.6-3.7,1.8c-1.3,1.1-2,2.2-2.2,3.3c-0.2,1.1,0.2,2.1,1,3.1c0.5,0.5,1,1,1.5,1.3l2.1-1.9
			l-2.1-2.4L194.1,213.3z"/>
		<path class="st7" d="M202,228.1l-4.9,4.3l-3.2-3.6l13.4-11.9l3.9,4.4c3.2,3.6,3.5,6.6,0.9,9c-1.5,1.4-3.4,1.7-5.6,0.9l-2.4,9.1
			l-3.6-4.1l2.3-7.2L202,228.1z M204.7,225.7l0.6,0.7c1.1,1.3,2.2,1.4,3.4,0.4c0.9-0.8,0.8-1.8-0.3-3.1l-0.6-0.7L204.7,225.7z"/>
		<path class="st7" d="M212.5,249.7l1.9-2.9l-3.9-4.3l-3.1,1.6l-3.5-4l17.3-7.6l4.3,4.8l-9.5,16.4L212.5,249.7z M216.7,243.4
			l1.7-2.5c0.4-0.6,0.9-1.3,1.5-2.2c0.6-0.9,1-1.5,1.3-1.9c-0.4,0.2-1,0.6-1.8,1c-0.9,0.5-2.6,1.4-5.2,2.7L216.7,243.4z"/>
		<path class="st7" d="M220.4,258.6l-3.2-3.6l13.4-11.9l7,7.9l-2.9,2.6l-3.9-4.3l-2.6,2.3l3.6,4l-2.9,2.6l-3.6-4L220.4,258.6z"/>
		<path class="st7" d="M226.3,265.2l13.4-11.9l3.2,3.6l-13.4,11.9L226.3,265.2z M240.7,252.3l0.3-0.2c1.8,0,3,0.1,3.5,0.1
			c0.5,0,1,0,1.3-0.1l3.5,3.9l-0.2,0.2c-0.8-0.1-1.9-0.4-3.3-0.7c-1.4-0.3-2.4-0.6-3-0.8L240.7,252.3z"/>
		<path class="st7" d="M239.4,279.9l1.9-2.9l-3.9-4.3l-3.1,1.6l-3.5-4l17.3-7.6l4.3,4.8l-9.5,16.4L239.4,279.9z M243.6,273.6
			l1.7-2.5c0.4-0.6,0.9-1.3,1.5-2.2c0.6-0.9,1-1.5,1.3-1.9c-0.4,0.2-1,0.6-1.8,1c-0.9,0.5-2.6,1.4-5.2,2.7L243.6,273.6z"/>
	</g>
</g>
</svg>
