<?xml version="1.0" encoding="utf-8"?>
<!-- Generator: Adobe Illustrator 19.2.1, SVG Export Plug-In . SVG Version: 6.00 Build 0)  -->
<svg version="1.1" id="Capa_1" xmlns="http://www.w3.org/2000/svg" xmlns:xlink="http://www.w3.org/1999/xlink" x="0px" y="0px"
	 viewBox="0 0 389.8 436.4" style="enable-background:new 0 0 389.8 436.4;" xml:space="preserve">
<style type="text/css">
	.st0{fill:#333333;}
	.st1{clip-path:url(#XMLID_5_);}
	.st2{opacity:0.75;fill:#333333;}
	.st3{fill:#F51D46;}
	.st4{fill:#F51D46;stroke:#FFFFFF;stroke-miterlimit:10;}
	.st5{fill:none;stroke:#FFFFFF;stroke-miterlimit:10;}
	.st6{clip-path:url(#XMLID_11_);}
	.st7{fill:#FFFFFF;}
</style>
<g>
	<g>
		<path class="st2" d="M0.8,0.4V436L389,0.4H0.8z"/>
		<path class="st3" d="M0,436.4h389.8V0L0,436.4z"/>
	</g>
	<g>
		<path class="st7" d="M133.4,284.7c2.2,2,3.4,4.1,3.5,6.4c0.1,2.3-0.8,4.6-2.8,6.8l-3.9,4.3l-13.4-11.9l4.1-4.6
			c1.9-2.1,3.9-3.3,6.1-3.5C129.3,282,131.4,282.8,133.4,284.7z M130.2,288.5c-1.2-1.1-2.3-1.7-3.4-1.7c-1,0-2,0.4-2.9,1.4l-0.9,1.1
			l7.5,6.7l0.7-0.8c1-1.1,1.4-2.2,1.2-3.3C132.3,290.8,131.5,289.7,130.2,288.5z"/>
		<path class="st7" d="M142.5,288.5l-13.4-11.9l3.2-3.6l13.4,11.9L142.5,288.5z"/>
		<path class="st7" d="M152.1,269.6c0.8,0.7,1.4,1.6,1.6,2.6c0.3,1,0.2,2-0.1,3.2c-0.3,1.1-1,2.2-1.9,3.3c-0.8,0.9-1.5,1.6-2.2,2.1
			c-0.7,0.5-1.4,0.9-2.3,1.3l-3.2-2.9c1-0.4,1.9-0.8,2.7-1.4s1.6-1.2,2.1-1.8c0.5-0.5,0.7-1,0.8-1.4c0-0.4-0.1-0.8-0.4-1
			c-0.2-0.2-0.4-0.3-0.6-0.3c-0.2,0-0.5,0-0.8,0.1s-1.2,0.4-2.4,1c-1.2,0.5-2.1,0.8-2.9,0.9c-0.8,0.1-1.5,0-2.1-0.2
			c-0.7-0.2-1.3-0.6-2-1.2c-1.2-1.1-1.8-2.4-1.7-3.9s0.9-3,2.3-4.6c1.2-1.4,2.8-2.5,4.7-3.4l1.8,3.6c-1.7,0.7-2.9,1.6-3.7,2.5
			c-0.4,0.5-0.6,0.9-0.7,1.2c0,0.4,0.1,0.6,0.3,0.9c0.3,0.2,0.6,0.3,1.1,0.2s1.5-0.5,3.1-1.2c1.5-0.7,2.8-1,3.8-0.9
			C150.2,268.3,151.2,268.8,152.1,269.6z"/>
		<path class="st7" d="M165,263.2l-7.1,7.9l-13.4-11.9l7.1-7.9l2.9,2.6l-3.9,4.3l2.1,1.9l3.6-4l2.9,2.6l-3.6,4l2.5,2.2l3.9-4.3
			L165,263.2z"/>
		<path class="st7" d="M159.8,240c-0.2,0.3-0.5,0.5-0.9,0.7c-0.3,0.2-0.7,0.4-1,0.6c-0.3,0.2-0.7,0.3-1,0.5
			c-0.3,0.2-0.6,0.4-0.8,0.6c-0.3,0.3-0.2,0.8,0.3,1.5l-1.5,1.6c-1-1-1.6-1.9-1.8-2.8c-0.2-0.8,0.1-1.6,0.7-2.3
			c0.2-0.2,0.5-0.4,0.8-0.6c0.3-0.2,0.7-0.4,1-0.5c0.3-0.2,0.7-0.3,1-0.5c0.3-0.2,0.6-0.4,0.8-0.6c0.2-0.2,0.2-0.4,0.1-0.6
			c-0.1-0.2-0.2-0.5-0.5-0.8l1.5-1.7c1,1,1.5,1.9,1.7,2.7S160.4,239.4,159.8,240z M178.5,248.1l-4.2,4.7l-13.8-3.5l-0.1,0.1
			c1.6,1.2,2.8,2.2,3.5,2.8l6,5.4l-2.8,3.2L153.8,249l4.2-4.7l13.6,3.4l0-0.1c-1.4-1.1-2.5-2-3.4-2.8l-6-5.4l2.9-3.2L178.5,248.1z"
			/>
		<path class="st7" d="M185.5,226.8c2.2,2,3.5,4.1,3.7,6.2s-0.7,4.3-2.6,6.4c-1.9,2.1-3.9,3.2-6.1,3.3c-2.2,0.1-4.4-0.9-6.6-2.9
			c-2.2-2-3.4-4.1-3.6-6.2c-0.2-2.2,0.7-4.3,2.6-6.4c1.9-2.1,3.9-3.2,6.1-3.3C181,223.8,183.2,224.8,185.5,226.8z M177.3,236
			c2.6,2.3,4.7,2.6,6.3,0.8c0.8-0.9,1.1-1.9,0.9-2.9c-0.2-1-1-2.1-2.3-3.3c-1.3-1.2-2.5-1.8-3.6-2c-1-0.1-2,0.3-2.7,1.2
			C174.2,231.6,174.7,233.6,177.3,236z"/>
		<path class="st7" d="M195.6,213.1l5.1-5.8l7.2,6.4c-0.9,2-2.1,4-3.8,5.9c-1.8,2.1-3.9,3.1-6,3.2c-2.2,0.1-4.4-0.9-6.6-2.9
			c-2.2-1.9-3.3-4-3.4-6.3c-0.1-2.3,0.8-4.6,2.8-6.8c0.8-0.8,1.5-1.6,2.4-2.2c0.8-0.6,1.6-1.1,2.3-1.4l1.8,3.7
			c-1.3,0.5-2.5,1.4-3.5,2.5c-0.9,1.1-1.3,2.2-1.2,3.4c0.2,1.2,0.9,2.3,2.2,3.5c1.3,1.1,2.4,1.7,3.6,1.8c1.1,0.1,2.1-0.4,3-1.4
			c0.5-0.5,0.9-1.1,1.2-1.6l-2.1-1.9l-2.1,2.4L195.6,213.1z"/>
		<path class="st7" d="M209.4,203.7l4.9,4.3l-3.2,3.6l-13.4-11.9l3.9-4.4c3.2-3.6,6.2-4.3,8.8-1.9c1.5,1.4,2.1,3.2,1.6,5.5l9.3,1.3
			l-3.6,4.1l-7.4-1.5L209.4,203.7z M206.7,201.2l0.6-0.7c1.1-1.3,1.1-2.4,0-3.4c-0.9-0.8-1.9-0.6-3,0.6l-0.6,0.7L206.7,201.2z"/>
		<path class="st7" d="M210.9,182.6l-0.3-0.2c-0.2-1.8-0.3-3-0.4-3.5c-0.1-0.5-0.1-1-0.2-1.3l3.5-3.9l0.2,0.2c0,0.8-0.1,1.9-0.3,3.3
			c-0.2,1.4-0.3,2.4-0.4,3.1L210.9,182.6z M229.6,190.7l-3.1-1.6l-3.9,4.3l1.9,2.9l-3.5,4l-9.5-16.3l4.3-4.8l17.4,7.5L229.6,190.7z
			 M222.9,187.3l-2.7-1.4c-0.6-0.3-1.4-0.7-2.3-1.2c-0.9-0.5-1.6-0.9-2-1.1c0.3,0.3,0.7,0.9,1.2,1.7c0.6,0.8,1.7,2.4,3.3,4.8
			L222.9,187.3z"/>
		<path class="st7" d="M237.6,181.8l-3.2,3.6L221,173.4l7-7.9l2.9,2.6l-3.9,4.3l2.6,2.3l3.6-4l2.9,2.6l-3.6,4L237.6,181.8z"/>
		<path class="st7" d="M243.4,175.2L230,163.3l3.2-3.6l13.4,11.9L243.4,175.2z"/>
		<path class="st7" d="M243.9,153.3c-0.8,0.9-1,1.8-0.7,3c0.3,1.1,1,2.2,2.3,3.3c2.6,2.3,4.7,2.5,6.5,0.5c0.5-0.6,1-1.2,1.3-1.9
			c0.3-0.7,0.6-1.4,0.9-2.2l3.1,2.7c-0.5,1.6-1.4,3-2.6,4.4c-1.8,2-3.8,3-5.9,3.1s-4.3-0.9-6.5-2.9c-1.4-1.2-2.4-2.6-3-4
			c-0.6-1.5-0.7-2.9-0.4-4.4c0.3-1.5,1-2.9,2.2-4.2c1.3-1.4,2.8-2.5,4.6-3.3l1.9,3.6c-0.7,0.3-1.3,0.6-1.9,1
			C245,152.3,244.4,152.8,243.9,153.3z"/>
		<path class="st7" d="M264.5,138.1c2.3,2,3.5,4.1,3.7,6.2s-0.7,4.3-2.6,6.4c-1.9,2.1-3.9,3.2-6.1,3.3c-2.2,0.1-4.4-0.9-6.6-2.9
			c-2.2-2-3.4-4.1-3.6-6.2c-0.2-2.2,0.7-4.3,2.6-6.4c1.9-2.1,3.9-3.2,6.1-3.3C260,135.1,262.2,136.1,264.5,138.1z M256.3,147.3
			c2.6,2.3,4.7,2.6,6.3,0.8c0.8-0.9,1.1-1.9,0.9-2.9c-0.2-1-1-2.1-2.3-3.3c-1.3-1.2-2.5-1.8-3.6-2c-1-0.1-2,0.3-2.7,1.2
			C253.2,142.9,253.7,145,256.3,147.3z"/>
	</g>
</g>
</svg>
