<?xml version="1.0" encoding="utf-8"?>
<!-- Generator: Adobe Illustrator 19.2.1, SVG Export Plug-In . SVG Version: 6.00 Build 0)  -->
<svg version="1.1" id="Capa_1" xmlns="http://www.w3.org/2000/svg" xmlns:xlink="http://www.w3.org/1999/xlink" x="0px" y="0px"
	 viewBox="0 0 389.8 436.4" style="enable-background:new 0 0 389.8 436.4;" xml:space="preserve">
<style type="text/css">
	.st0{fill:#333333;}
	.st1{clip-path:url(#XMLID_5_);}
	.st2{opacity:0.75;fill:#333333;}
	.st3{fill:#F51D46;}
	.st4{fill:#F51D46;stroke:#FFFFFF;stroke-miterlimit:10;}
	.st5{fill:none;stroke:#FFFFFF;stroke-miterlimit:10;}
	.st6{clip-path:url(#XMLID_11_);}
	.st7{fill:#FFFFFF;}
</style>
<g>
	<g>
		<path class="st2" d="M389.8,436.4V-0.3L0.1,436.4H389.8z"/>
		<path class="st3" d="M389.1,0.4H0.8v435.3L389.1,0.4z"/>
	</g>
	<g>
		<path class="st7" d="M144,286l-13.4-11.9l3.2-3.6l13.4,11.9L144,286z"/>
		<path class="st7" d="M149.9,279.5l-13.4-11.9l3.2-3.6l10.5,9.3l4.6-5.1l2.9,2.6L149.9,279.5z"/>
		<path class="st7" d="M156.3,245.3l8,7.2c1.7,1.6,2.7,3.3,2.7,5.1c0.1,1.8-0.7,3.7-2.4,5.6c-1.6,1.8-3.3,2.8-5.1,3
			c-1.8,0.1-3.6-0.6-5.3-2.1l-8.1-7.2l3.2-3.6l7.8,7c0.9,0.8,1.8,1.3,2.5,1.3c0.7,0,1.4-0.3,2-1c0.7-0.7,0.9-1.5,0.8-2.2
			c-0.1-0.7-0.7-1.5-1.6-2.4l-7.8-7L156.3,245.3z"/>
		<path class="st7" d="M175.9,242.1c0.8,0.7,1.4,1.6,1.6,2.6c0.3,1,0.2,2-0.1,3.2c-0.3,1.1-1,2.2-1.9,3.3c-0.8,0.9-1.5,1.6-2.2,2.1
			c-0.7,0.5-1.4,0.9-2.3,1.3l-3.2-2.9c1-0.4,1.9-0.8,2.7-1.4c0.9-0.6,1.6-1.2,2.1-1.8c0.5-0.5,0.7-1,0.8-1.4c0-0.4-0.1-0.8-0.4-1
			c-0.2-0.2-0.4-0.3-0.6-0.3c-0.2,0-0.5,0-0.8,0.1c-0.3,0.1-1.2,0.4-2.4,1c-1.2,0.5-2.1,0.8-2.9,0.9c-0.8,0.1-1.5,0-2.1-0.2
			c-0.7-0.2-1.3-0.6-2-1.2c-1.2-1.1-1.8-2.4-1.7-3.9c0.1-1.5,0.9-3,2.3-4.6c1.2-1.4,2.8-2.5,4.7-3.4l1.8,3.6
			c-1.7,0.7-2.9,1.6-3.7,2.5c-0.4,0.5-0.6,0.9-0.7,1.2c0,0.4,0.1,0.6,0.3,0.9c0.3,0.2,0.6,0.3,1.1,0.2c0.4-0.1,1.5-0.5,3.1-1.2
			c1.5-0.7,2.8-1,3.8-0.9S175,241.3,175.9,242.1z"/>
		<path class="st7" d="M187.1,237.7l-3.2,3.6l-10.4-9.3l-2.9,3.3l-3-2.6l9-10.1l3,2.6l-2.9,3.3L187.1,237.7z"/>
		<path class="st7" d="M190,224.6l4.9,4.3l-3.2,3.6l-13.4-11.9l3.9-4.4c3.2-3.6,6.2-4.3,8.8-1.9c1.5,1.4,2.1,3.2,1.6,5.5l9.3,1.3
			l-3.6,4.1l-7.4-1.5L190,224.6z M187.3,222.2l0.6-0.7c1.1-1.3,1.1-2.4,0-3.4c-0.9-0.8-1.9-0.6-3,0.6l-0.6,0.7L187.3,222.2z"/>
		<path class="st7" d="M210.3,211.7l-3.1-1.6l-3.9,4.3l1.9,2.9l-3.5,4l-9.5-16.3l4.3-4.8l17.4,7.5L210.3,211.7z M203.5,208.2
			l-2.7-1.4c-0.6-0.3-1.4-0.7-2.3-1.2s-1.6-0.9-2-1.1c0.3,0.3,0.7,0.9,1.2,1.7c0.6,0.8,1.7,2.4,3.3,4.8L203.5,208.2z"/>
		<path class="st7" d="M209.8,190.9c-0.8,0.9-1,1.8-0.7,3c0.3,1.1,1,2.2,2.3,3.3c2.6,2.3,4.7,2.5,6.5,0.5c0.5-0.6,1-1.2,1.3-1.9
			c0.3-0.7,0.6-1.4,0.9-2.2l3.1,2.7c-0.5,1.6-1.4,3-2.6,4.4c-1.8,2-3.8,3-5.9,3.1c-2.1,0-4.3-0.9-6.5-2.9c-1.4-1.2-2.4-2.6-3-4
			c-0.6-1.5-0.7-2.9-0.4-4.4c0.3-1.5,1-2.9,2.2-4.2c1.3-1.4,2.8-2.5,4.6-3.3l1.9,3.6c-0.7,0.3-1.3,0.6-1.9,1
			C210.8,189.9,210.3,190.3,209.8,190.9z"/>
		<path class="st7" d="M225.9,194.1l-13.4-11.9l3.2-3.6l13.4,11.9L225.9,194.1z"/>
		<path class="st7" d="M220.7,170.9l-0.3-0.2c-0.2-1.8-0.3-3-0.4-3.5c-0.1-0.5-0.1-1-0.2-1.3l3.5-3.9l0.2,0.2c0,0.8-0.1,1.9-0.3,3.3
			c-0.2,1.4-0.3,2.4-0.4,3.1L220.7,170.9z M236.1,169.1c2.2,2,3.5,4.1,3.7,6.2c0.2,2.1-0.7,4.3-2.6,6.4c-1.9,2.1-3.9,3.2-6.1,3.3
			s-4.4-0.9-6.6-2.9c-2.2-2-3.4-4.1-3.6-6.2c-0.2-2.2,0.7-4.3,2.6-6.4c1.9-2.1,3.9-3.2,6.1-3.3S233.9,167.1,236.1,169.1z
			 M227.9,178.3c2.6,2.3,4.7,2.6,6.3,0.8c0.8-0.9,1.1-1.9,0.9-2.9c-0.2-1-1-2.1-2.3-3.3c-1.3-1.2-2.5-1.8-3.6-2
			c-1-0.1-2,0.3-2.7,1.2C224.8,173.9,225.3,176,227.9,178.3z"/>
		<path class="st7" d="M256.3,160l-4.2,4.7l-13.8-3.5l-0.1,0.1c1.6,1.2,2.8,2.2,3.5,2.8l6,5.4l-2.9,3.2l-13.4-11.9l4.2-4.7l13.6,3.4
			l0-0.1c-1.4-1.1-2.5-2-3.4-2.8l-6-5.4l2.9-3.2L256.3,160z"/>
	</g>
</g>
</svg>
