<?xml version="1.0" encoding="utf-8"?>
<!-- Generator: Adobe Illustrator 19.2.1, SVG Export Plug-In . SVG Version: 6.00 Build 0)  -->
<svg version="1.1" id="Capa_1" xmlns="http://www.w3.org/2000/svg" xmlns:xlink="http://www.w3.org/1999/xlink" x="0px" y="0px"
	 viewBox="0 0 389.8 436.4" style="enable-background:new 0 0 389.8 436.4;" xml:space="preserve">
<style type="text/css">
	.st0{fill:#333333;}
	.st1{clip-path:url(#XMLID_5_);}
	.st2{opacity:0.75;fill:#333333;}
	.st3{fill:#F51D46;}
	.st4{fill:#F51D46;stroke:#FFFFFF;stroke-miterlimit:10;}
	.st5{fill:none;stroke:#FFFFFF;stroke-miterlimit:10;}
	.st6{clip-path:url(#XMLID_11_);}
	.st7{fill:#FFFFFF;}
</style>
<g>
	<g>
		<path class="st2" d="M389.3,436.4L0.8,0v436.4H389.3z"/>
		<path class="st3" d="M389.8,436V0.4H0.3L389.8,436z"/>
	</g>
	<g>
		<path class="st7" d="M161.9,171.8c-0.8-0.9-1.7-1.2-2.8-1.1s-2.3,0.8-3.6,1.9c-2.6,2.3-3,4.4-1.2,6.4c0.5,0.6,1.1,1.1,1.8,1.5
			c0.7,0.4,1.4,0.8,2.1,1.1l-3.1,2.7c-1.5-0.7-2.9-1.7-4.1-3.1c-1.8-2-2.6-4.1-2.4-6.2c0.2-2.1,1.4-4.2,3.6-6.1
			c1.4-1.2,2.8-2.1,4.3-2.5s3-0.4,4.4,0.1c1.4,0.5,2.7,1.4,3.9,2.7c1.3,1.4,2.2,3.1,2.7,5l-3.8,1.4c-0.2-0.7-0.5-1.4-0.7-2
			S162.4,172.4,161.9,171.8z"/>
		<path class="st7" d="M163.9,195.4l-7.1-7.9l13.4-11.9l7.1,7.9l-2.9,2.6l-3.9-4.3l-2.1,1.9l3.6,4l-2.9,2.6l-3.6-4l-2.5,2.2l3.9,4.3
			L163.9,195.4z"/>
		<path class="st7" d="M174.1,197l-4.9,4.3l-3.2-3.6l13.4-11.9l3.9,4.4c3.2,3.6,3.5,6.6,0.9,9c-1.5,1.4-3.4,1.7-5.6,0.9l-2.4,9.1
			l-3.6-4.1l2.3-7.2L174.1,197z M176.8,194.6l0.6,0.7c1.1,1.3,2.2,1.4,3.4,0.4c0.9-0.8,0.8-1.8-0.3-3.1l-0.6-0.7L176.8,194.6z"/>
		<path class="st7" d="M184.6,218.6l1.9-2.9l-3.9-4.3l-3.1,1.6l-3.5-4l17.3-7.6l4.3,4.8l-9.5,16.4L184.6,218.6z M188.8,212.3
			l1.7-2.5c0.4-0.6,0.9-1.3,1.5-2.2s1-1.5,1.3-1.9c-0.4,0.2-1,0.6-1.8,1c-0.9,0.5-2.6,1.4-5.2,2.7L188.8,212.3z M194.8,201l0.3-0.2
			c1.8,0,3,0.1,3.5,0.1c0.5,0,1,0,1.3-0.1l3.5,3.9l-0.2,0.2c-0.8-0.1-1.9-0.4-3.3-0.7c-1.4-0.3-2.4-0.6-3-0.8L194.8,201z"/>
		<path class="st7" d="M194.6,229.8l7.2-11.3l-0.1-0.1c-1.5,1.6-2.7,2.8-3.7,3.6l-5.8,5.2l-2.9-3.2l13.4-11.9l4.3,4.8l-7,11.2
			l0.1,0.1l11.9-5.7l4.3,4.8L203,239.2l-3-3.3l5.9-5.2c0.3-0.3,0.6-0.6,1-0.9c0.4-0.3,1.3-1.1,2.8-2.3l-0.1-0.1l-12,5.9L194.6,229.8
			z"/>
		<path class="st7" d="M205.5,242.1l13.4-11.9l3.2,3.6l-13.4,11.9L205.5,242.1z"/>
		<path class="st7" d="M227.2,245.1c-0.8-0.9-1.7-1.2-2.8-1.1c-1.1,0.1-2.3,0.8-3.6,1.9c-2.6,2.3-3,4.4-1.2,6.4
			c0.5,0.6,1.1,1.1,1.8,1.5c0.7,0.4,1.4,0.8,2.1,1.1l-3.1,2.7c-1.5-0.7-2.9-1.7-4.1-3.1c-1.8-2-2.6-4.1-2.4-6.2
			c0.2-2.1,1.4-4.2,3.6-6.1c1.4-1.2,2.8-2.1,4.3-2.5c1.5-0.4,3-0.4,4.4,0.1c1.4,0.5,2.7,1.4,3.9,2.7c1.3,1.4,2.2,3.1,2.7,5l-3.8,1.4
			c-0.2-0.7-0.5-1.4-0.7-2C228.1,246.3,227.7,245.7,227.2,245.1z"/>
		<path class="st7" d="M229.5,269l1.9-2.9l-3.9-4.3l-3.1,1.6l-3.5-4l17.3-7.6l4.3,4.8l-9.5,16.4L229.5,269z M233.7,262.7l1.7-2.5
			c0.4-0.6,0.9-1.3,1.5-2.2c0.6-0.9,1-1.5,1.3-1.9c-0.4,0.2-1,0.6-1.8,1c-0.9,0.5-2.6,1.4-5.2,2.7L233.7,262.7z"/>
	</g>
</g>
</svg>
