<?xml version="1.0" encoding="utf-8"?>
<!-- Generator: Adobe Illustrator 19.2.1, SVG Export Plug-In . SVG Version: 6.00 Build 0)  -->
<svg version="1.1" id="Capa_1" xmlns="http://www.w3.org/2000/svg" xmlns:xlink="http://www.w3.org/1999/xlink" x="0px" y="0px"
	 viewBox="0 0 132.2 148.8" style="enable-background:new 0 0 132.2 148.8;" xml:space="preserve">
<style type="text/css">
	.st0{fill:#E62A4A;}
	.st1{fill:#E62A4A;stroke:#FFFFFF;stroke-miterlimit:10;}
</style>
<g>
	<path class="st0" d="M128.2,4v140.8H4V4H128.2 M132.2,0H0v148.8h132.2V0L132.2,0z"/>
	<g>
		<polygon class="st0" points="70.4,38.3 56,15 49.5,15 49.5,48.7 56,48.7 56,25.5 70.4,48.7 76.9,48.7 76.9,15 70.4,15 		"/>
		<path class="st0" d="M30.5,105.4c1.8,0,3.2,0.6,4.4,1.7c1.2,1.2,2,2.7,2.5,4.6l6.4-1.2c-0.3-1.1-0.7-2.2-1.1-3.2
			c-0.5-1-1-2-1.8-2.9c-0.7-0.9-1.6-1.7-2.5-2.4c-1-0.7-2.1-1.2-3.4-1.6c-1.3-0.4-2.8-0.6-4.4-0.6c-2.3,0-4.3,0.4-6.1,1.3
			c-1.8,0.8-3.3,2-4.5,3.5c-1.2,1.5-2.1,3.3-2.7,5.4c-0.6,2.1-0.9,4.3-0.9,6.8c0,3.3,0.5,6.3,1.6,8.8c1.1,2.5,2.7,4.5,4.9,6
			c2.2,1.5,4.8,2.2,7.8,2.2c1.9,0,3.7-0.3,5.3-0.9c1.6-0.6,2.9-1.4,4-2.4c1.1-1,1.9-2.1,2.6-3.4c0.7-1.2,1.1-2.5,1.4-3.9l-6.4-1.2
			c-0.4,1.9-1.3,3.5-2.4,4.6c-1.2,1.2-2.7,1.7-4.4,1.7c-2.5,0-4.4-1-5.6-3c-1.3-2-1.9-4.8-1.9-8.5c0-3.6,0.6-6.5,1.9-8.5
			C26.2,106.4,28,105.4,30.5,105.4z"/>
		<polygon class="st0" points="91.8,100.8 85.2,100.8 85.2,133.7 109.7,133.7 109.7,128.3 91.8,128.3 		"/>
		<path class="st0" d="M49.5,100v33.7H56v-6.3h10.5l3.9,6.3h6.5L56,100H49.5z M56,120.9v-10.4l6.5,10.4H56z"/>
		<path class="st0" d="M39.4,71.4c0.9-1.2,1.3-2.6,1.3-4.1c0-3-0.9-5.3-2.6-7c-1.7-1.7-4.1-2.5-7.1-2.5H16.2v33h15.5
			c3.2,0,5.7-0.8,7.5-2.5c1.8-1.7,2.7-4.1,2.7-7.1c0-1.8-0.5-3.4-1.6-4.8c-1.1-1.4-2.3-2.3-3.6-2.7C37.7,73.4,38.6,72.7,39.4,71.4z
			 M22.8,63.3h8.1c1.1,0,2,0.4,2.6,1.2c0.7,0.8,1,1.8,1,3c0,1-0.4,1.8-1.1,2.6c-0.7,0.7-1.6,1.1-2.5,1.1h-8.1V63.3z M34.3,84.1
			c-0.8,0.8-1.8,1.2-3,1.2h-8.5v-8.8h8.6c1.2,0,2.2,0.5,2.9,1.4c0.7,0.9,1.1,2,1.1,3.2C35.4,82.3,35,83.3,34.3,84.1z"/>
		<path class="st0" d="M72.3,74.6c1.4-1.8,2.2-4,2.2-6.5c0-2.9-1-5.4-2.9-7.3c-1.9-2-4.4-2.9-7.4-2.9H49.8v33h6.6V78.4H59
			c5.9,7.3,9.3,11.5,10.1,12.5h7.5L66.3,78.1h0.2C68.9,77.6,70.8,76.5,72.3,74.6z M63.8,72.9h-7.4v-9.6h7.4c1.1,0,2,0.5,2.8,1.4
			c0.8,0.9,1.2,2.1,1.2,3.4c0,1.3-0.4,2.4-1.2,3.4C65.8,72.5,64.9,72.9,63.8,72.9z"/>
		<path class="st0" d="M108.6,65.6c-1.1-2.5-2.7-4.5-4.8-6c-2.2-1.5-4.8-2.2-7.9-2.2c-3,0-5.6,0.7-7.8,2.2c-2.2,1.5-3.8,3.5-4.9,6
			c-1.1,2.5-1.6,5.4-1.6,8.8c0,3.3,0.5,6.3,1.6,8.8c1.1,2.5,2.7,4.5,4.9,6c2.2,1.5,4.8,2.2,7.8,2.2c3.1,0,5.7-0.7,7.9-2.2
			c2.2-1.5,3.8-3.4,4.8-6c0.7-1.8,1.2-3.8,1.4-6h6v-5.6h-6C109.9,69.3,109.4,67.3,108.6,65.6z M101.6,82.9c-1.3,2-3.2,3-5.7,3
			c-2.5,0-4.4-1-5.6-3c-1.2-2-1.9-4.8-1.9-8.5c0-3.7,0.6-6.5,1.9-8.5c1.2-2,3.1-3,5.6-3c2.5,0,4.4,1,5.7,3c0.9,1.4,1.5,3.3,1.7,5.7
			H96v5.6h7.4C103.1,79.5,102.6,81.4,101.6,82.9z"/>
		<path class="st0" d="M109.7,22.3V15h-6.5v1.2v5.2v0.9h-9.9l-3-4.8L88.7,15h-6.5l20.9,33.7h6.5V27.9h6.4v-5.6H109.7z M103.2,38.3
			l-6.4-10.4h6.4V38.3z"/>
		<path class="st0" d="M16.2,48.7h6.5v-1.2v-5.2v-0.9h9.9l3,4.8l1.5,2.5h6.5L22.7,15h-6.5v20.8H9.8v5.6h6.4V48.7z M22.7,25.5
			l6.4,10.4h-6.4V25.5z"/>
	</g>
</g>
</svg>
